<?xml version="1.0" encoding="UTF-8"?>
<svg version="1.1" xmlns="http://www.w3.org/2000/svg" width="180" height="180">
<path d="M0 0 C59.4 0 118.8 0 180 0 C180 59.4 180 118.8 180 180 C120.6 180 61.2 180 0 180 C0 120.6 0 61.2 0 0 Z " fill="#DCDCDC" transform="translate(0,0)"/>
<path d="M0 0 C2.92937654 1.81310142 5.43647949 3.87295899 7 7 C7.78375 6.030625 8.5675 5.06125 9.375 4.0625 C10.91288705 2.16037654 11.79259913 1.10370043 14 0 C16.0234375 -0.0546875 16.0234375 -0.0546875 18.375 0.125 C19.14585937 0.16882813 19.91671875 0.21265625 20.7109375 0.2578125 C24.08696486 1.35242888 25.09861127 3.03342893 27 6 C27.34291942 8.71625369 27.47072866 11.0064241 27.390625 13.70703125 C27.38496521 14.43242599 27.37930542 15.15782074 27.37347412 15.90519714 C27.35119099 18.20832008 27.30101487 20.50985224 27.25 22.8125 C27.22992434 24.37953472 27.21167543 25.94659399 27.1953125 27.51367188 C27.15135337 31.34305519 27.08238623 35.17125846 27 39 C28.98 39 30.96 39 33 39 C33.04254356 40.99954746 33.04080783 43.00041636 33 45 C31.33438601 46.66561399 29.34037295 46.17115945 27.0625 46.1875 C26.16660156 46.20167969 25.27070313 46.21585938 24.34765625 46.23046875 C22 46 22 46 20 44 C19.75456859 41.35212211 19.62650614 38.80096177 19.5859375 36.1484375 C19.56657135 35.37440582 19.5472052 34.60037415 19.5272522 33.80288696 C19.4674017 31.32703725 19.42104989 28.85114117 19.375 26.375 C19.33682518 24.69789623 19.29777375 23.02081216 19.2578125 21.34375 C19.16169591 17.22932647 19.07768561 13.11481114 19 9 C15.52852158 8.25042843 15.52852158 8.25042843 12 8 C9.52114263 12.78065349 7.7767568 16.86243106 7.5859375 22.30078125 C7.54726562 23.27724609 7.50859375 24.25371094 7.46875 25.25976562 C7.42234375 26.77086914 7.42234375 26.77086914 7.375 28.3125 C7.33632812 29.33923828 7.29765625 30.36597656 7.2578125 31.42382812 C7.16385103 33.94904265 7.0781846 36.47425592 7 39 C7.804375 38.979375 8.60875 38.95875 9.4375 38.9375 C12 39 12 39 13 40 C13.125 42.5 13.125 42.5 13 45 C12 46 12 46 9.53125 46.1328125 C8.03078125 46.12894531 8.03078125 46.12894531 6.5 46.125 C5.4996875 46.12757812 4.499375 46.13015625 3.46875 46.1328125 C1 46 1 46 0 45 C-0.16010481 42.26298822 -0.25946828 39.5483241 -0.31640625 36.80859375 C-0.33718735 35.98875504 -0.35796844 35.16891632 -0.37937927 34.32423401 C-0.44496494 31.69541099 -0.50380126 29.06648496 -0.5625 26.4375 C-0.60567667 24.65949439 -0.64929067 22.88149935 -0.69335938 21.10351562 C-0.80065543 16.73578366 -0.90189704 12.36794773 -1 8 C-6.13012213 8.25655436 -6.13012213 8.25655436 -9.875 11.3125 C-11.52798713 15.26130259 -12.13410315 18.71327388 -12.31640625 22.984375 C-12.35830078 23.91894531 -12.40019531 24.85351562 -12.44335938 25.81640625 C-12.50233398 27.26853516 -12.50233398 27.26853516 -12.5625 28.75 C-12.60568359 29.73355469 -12.64886719 30.71710938 -12.69335938 31.73046875 C-12.79922052 34.15351275 -12.90130171 36.5766554 -13 39 C-11.35 39 -9.7 39 -8 39 C-7.375 41.375 -7.375 41.375 -7 44 C-9 46 -9 46 -12.9140625 46.1953125 C-14.48449351 46.18200376 -16.05486221 46.15813602 -17.625 46.125 C-18.42679688 46.11597656 -19.22859375 46.10695312 -20.0546875 46.09765625 C-22.03658523 46.07406223 -24.01832981 46.03819065 -26 46 C-26.38133299 44.0085944 -26.71325582 42.00720923 -27 40 C-26.505 39.505 -26.505 39.505 -26 39 C-24.02 39 -22.04 39 -20 39 C-20 28.77 -20 18.54 -20 8 C-21.98 8 -23.96 8 -26 8 C-27 7 -27 7 -27.125 4.5 C-27 2 -27 2 -26 1 C-24.14712498 0.92773498 -22.29166122 0.9161878 -20.4375 0.9375 C-19.42558594 0.94652344 -18.41367188 0.95554687 -17.37109375 0.96484375 C-16.19740234 0.98224609 -16.19740234 0.98224609 -15 1 C-14.34 2.98 -13.68 4.96 -13 7 C-12.21625 6.030625 -11.4325 5.06125 -10.625 4.0625 C-7.43137021 0.1124842 -5.15413251 -0.5947076 0 0 Z " fill="#090909" transform="translate(112,76)"/>
<path d="M0 0 C3.64581687 -0.02887512 7.29160463 -0.04675585 10.9375 -0.0625 C12.49887695 -0.07506836 12.49887695 -0.07506836 14.09179688 -0.08789062 C15.08115234 -0.09111328 16.07050781 -0.09433594 17.08984375 -0.09765625 C18.46450806 -0.10551147 18.46450806 -0.10551147 19.86694336 -0.11352539 C22 0 22 0 23 1 C23.0935919 2.71865409 23.11744611 4.44115744 23.11352539 6.16235352 C23.11344986 7.26341934 23.11337433 8.36448517 23.11329651 9.49891663 C23.10813522 10.6968132 23.10297394 11.89470978 23.09765625 13.12890625 C23.0962413 14.34827377 23.09482635 15.5676413 23.09336853 16.82395935 C23.08774967 20.7368307 23.07519396 24.64964581 23.0625 28.5625 C23.05748743 31.20768147 23.0529241 33.85286383 23.04882812 36.49804688 C23.03777411 42.99871726 23.02101764 49.49935461 23 56 C24.82337891 55.98259766 24.82337891 55.98259766 26.68359375 55.96484375 C28.26822764 55.95546722 29.85286318 55.94636687 31.4375 55.9375 C32.64116211 55.92493164 32.64116211 55.92493164 33.86914062 55.91210938 C35.91295221 55.9034857 37.95683902 55.9477185 40 56 C41 57 41 57 41.125 59.5 C41 62 41 62 40 63 C36.98191937 63.101137 33.98719487 63.13968909 30.96875 63.1328125 C30.06249878 63.13376923 29.15624756 63.13472595 28.22253418 63.13571167 C26.30248953 63.13639353 24.38244259 63.13453882 22.46240234 63.13037109 C19.51264296 63.12502292 16.56303586 63.13031588 13.61328125 63.13671875 C11.75260383 63.13605797 9.8919265 63.13477681 8.03125 63.1328125 C6.69846008 63.13584885 6.69846008 63.13584885 5.33874512 63.13894653 C-0.88505012 63.11494988 -0.88505012 63.11494988 -2 62 C-2.125 59.5 -2.125 59.5 -2 57 C-1.505 56.505 -1.505 56.505 -1 56 C4.61 56 10.22 56 16 56 C16 39.5 16 23 16 6 C10.72 6 5.44 6 0 6 C0 4.02 0 2.04 0 0 Z " fill="#070707" transform="translate(37,59)"/>
<path d="M0 0 C0.33 0 0.66 0 1 0 C1 3.63 1 7.26 1 11 C-2.63 11 -6.26 11 -10 11 C-9.2575 10.443125 -8.515 9.88625 -7.75 9.3125 C-4.52326049 6.59910541 -1.89487672 3.78975344 0 0 Z " fill="#000000" transform="translate(179,169)"/>
<path d="M0 0 C0.556875 0.7425 1.11375 1.485 1.6875 2.25 C3.93727787 4.92541152 6.2309174 6.88675275 9 9 C9.66 9.66 10.32 10.32 11 11 C7.37 11 3.74 11 0 11 C0 7.37 0 3.74 0 0 Z " fill="#000000" transform="translate(0,169)"/>
<path d="M0 0 C3.63 0 7.26 0 11 0 C11 3.63 11 7.26 11 11 C10.443125 10.2575 9.88625 9.515 9.3125 8.75 C7.06272213 6.07458848 4.7690826 4.11324725 2 2 C1.34 1.34 0.68 0.68 0 0 Z " fill="#000000" transform="translate(169,0)"/>
<path d="M0 0 C3.63 0 7.26 0 11 0 C10.2575 0.556875 9.515 1.11375 8.75 1.6875 C6.07458848 3.93727787 4.11324725 6.2309174 2 9 C1.34 9.66 0.68 10.32 0 11 C0 7.37 0 3.74 0 0 Z " fill="#000000" transform="translate(0,0)"/>
</svg>
